M48
; DRILL file {KiCad (5.99.0-10623-gbaf868fce7)} date Saturday, May 29, 2021 at 08:15:48 AM
; FORMAT={-:-/ absolute / inch / decimal}
; #@! TF.CreationDate,2021-05-29T08:15:48+02:00
; #@! TF.GenerationSoftware,Kicad,Pcbnew,(5.99.0-10623-gbaf868fce7)
; #@! TF.FileFunction,MixedPlating,1,2
FMAT,2
INCH
; #@! TA.AperFunction,Plated,PTH,ViaDrill
T1C0.0157
; #@! TA.AperFunction,Plated,PTH,ComponentDrill
T2C0.0197
; #@! TA.AperFunction,Plated,PTH,ComponentDrill
T3C0.0236
; #@! TA.AperFunction,Plated,PTH,ComponentDrill
T4C0.0320
; #@! TA.AperFunction,Plated,PTH,ComponentDrill
T5C0.0354
; #@! TA.AperFunction,Plated,PTH,ComponentDrill
T6C0.0394
; #@! TA.AperFunction,Plated,PTH,ComponentDrill
T7C0.0429
; #@! TA.AperFunction,Plated,PTH,ComponentDrill
T8C0.0433
; #@! TA.AperFunction,Plated,PTH,ComponentDrill
T9C0.0433
; #@! TA.AperFunction,Plated,PTH,ComponentDrill
T10C0.0826
; #@! TA.AperFunction,Plated,PTH,ComponentDrill
T11C0.1260
; #@! TA.AperFunction,NonPlated,NPTH,ComponentDrill
T12C0.0197
; #@! TA.AperFunction,NonPlated,NPTH,ComponentDrill
T13C0.1181
%
G90
G05
T1
X4.0354Y-2.878
X4.3778Y-4.295
X4.6378Y-5.7913
X4.7283Y-4.0157
X4.7953Y-5.6831
X4.8858Y-5.5315
X5.1242Y-5.797
X5.185Y-5.6457
X5.2321Y-3.106
X5.3484Y-5.2933
X5.7281Y-2.3304
X6.0827Y-3.2677
X6.0866Y-3.1654
X6.1102Y-4.8701
X6.1122Y-4.8012
X6.1732Y-2.9488
X6.1862Y-3.096
X6.189Y-2.0236
X6.2047Y-5.063
X6.2047Y-5.2559
X6.2087Y-3.7205
X6.2126Y-2.2874
X6.2279Y-2.4808
X6.2302Y-2.7127
X6.2303Y-2.7598
X6.2362Y-2.878
X6.2638Y-3.0787
X6.2894Y-2.7126
X6.2992Y-4.7323
X6.2992Y-4.8701
X6.3071Y-3.3583
X6.3108Y-2.106
X6.3228Y-3.2835
X6.3268Y-4.3189
X6.3701Y-3.2126
X6.3732Y-2.272
X6.374Y-2.9764
X6.378Y-2.7598
X6.3839Y-5.2776
X6.3858Y-1.9367
X6.3976Y-4.6654
X6.437Y-4.9646
X6.437Y-5.1181
X6.4449Y-2.7008
X6.4488Y-3.9843
X6.4508Y-1.7766
X6.4685Y-3.3731
X6.4772Y-2.7462
X6.4848Y-2.5831
X6.488Y-2.0
X6.5059Y-2.1831
X6.5157Y-2.9724
X6.5197Y-2.4646
X6.5197Y-5.1457
X6.5197Y-5.3406
X6.5276Y-1.7766
X6.5295Y-4.3031
X6.5315Y-3.3219
X6.5354Y-2.0
X6.5354Y-2.8031
X6.5472Y-1.8661
X6.5591Y-1.9488
X6.565Y-3.0886
X6.565Y-3.1673
X6.5667Y-2.4682
X6.5906Y-4.498
X6.618Y-2.9714
X6.6354Y-4.688
X6.6376Y-2.3265
X6.6378Y-3.7677
X6.6378Y-4.0039
X6.6394Y-4.8839
X6.6417Y-5.0669
X6.6417Y-5.2362
X6.6455Y-2.4722
X6.6457Y-4.1575
X6.6612Y-1.8698
X6.6614Y-3.4803
X6.6614Y-4.4961
X6.6614Y-4.622
X6.6655Y-2.9724
X6.6673Y-3.2874
X6.6848Y-2.1415
X6.685Y-2.0
X6.7126Y-4.8465
X6.7126Y-4.8858
X6.7165Y-3.2887
X6.7244Y-3.8543
X6.7358Y-2.0005
X6.7362Y-4.7008
X6.7402Y-4.0039
X6.7559Y-5.1102
X6.7751Y-3.1147
X6.7815Y-2.3287
X6.7894Y-4.3209
X6.7894Y-5.0276
X6.7953Y-1.8071
X6.7953Y-2.7638
X6.7992Y-2.5276
X6.8031Y-2.9764
X6.8031Y-3.0354
X6.8031Y-3.252
X6.8031Y-3.9843
X6.8039Y-5.0717
X6.8071Y-2.1634
X6.8071Y-2.7028
X6.8187Y-2.3934
X6.8187Y-2.4682
X6.8312Y-5.7516
X6.8346Y-4.622
X6.8386Y-4.3209
X6.8406Y-2.7638
X6.8425Y-2.0709
X6.8465Y-3.378
X6.8465Y-4.7677
X6.8543Y-2.3307
X6.8622Y-4.4055
X6.8858Y-4.7008
X6.8898Y-4.3209
X6.9055Y-2.0669
X6.9094Y-5.0591
X6.9222Y-3.2988
X6.9222Y-3.1454
X6.939Y-4.3209
X6.9429Y-2.3287
X6.9449Y-2.9724
X6.9606Y-2.5276
X6.9606Y-4.7008
X6.9606Y-5.0276
X6.9611Y-3.293
X6.9724Y-4.3819
X6.9724Y-5.1024
X6.9764Y-4.063
X6.9843Y-4.4921
X6.9961Y-3.3743
X7.0Y-2.2005
X7.0039Y-4.4331
X7.0088Y-4.8465
X7.0098Y-4.7008
X7.0098Y-5.0276
X7.0118Y-3.9882
X7.0118Y-4.2402
X7.0315Y-2.3307
X7.0315Y-2.8395
X7.0472Y-3.3743
X7.0591Y-5.0876
X7.063Y-5.2953
X7.0669Y-5.187
X7.0866Y-4.5984
X7.0866Y-4.0039
X7.0926Y-2.0049
X7.0943Y-2.3304
X7.0945Y-2.9646
X7.0945Y-3.1102
X7.0945Y-3.2953
X7.1102Y-5.0276
X7.1122Y-5.7461
X7.1161Y-4.7008
X7.1181Y-5.185
X7.1339Y-4.0039
X7.1368Y-4.8766
X7.1417Y-2.0039
X7.1447Y-4.5984
X7.1457Y-2.3307
X7.1457Y-3.315
X7.1457Y-4.4331
X7.1476Y-4.1398
X7.1594Y-4.7008
X7.1732Y-4.374
X7.177Y-2.5276
X7.1811Y-2.7598
X7.1812Y-4.5049
X7.2087Y-4.7008
X7.2126Y-2.9084
X7.2146Y-2.1454
X7.2358Y-4.2061
X7.2362Y-5.7283
X7.2441Y-2.0039
X7.251Y-3.2559
X7.2598Y-5.0276
X7.2638Y-3.7953
X7.2795Y-5.685
X7.2835Y-3.0
X7.2835Y-4.0039
X7.2992Y-5.0669
X7.2998Y-4.7717
X7.3031Y-2.7598
X7.3197Y-5.6488
X7.3268Y-5.1654
X7.3307Y-3.0591
X7.3307Y-3.1732
X7.3307Y-4.7165
X7.3346Y-4.0039
X7.3425Y-2.2618
X7.3465Y-2.9685
X7.3504Y-4.4921
X7.3524Y-4.3425
X7.378Y-5.2362
X7.3799Y-5.4783
X7.3819Y-3.2953
X7.3819Y-5.0591
X7.3937Y-2.2362
X7.3937Y-5.5787
X7.4173Y-2.1024
X7.4173Y-2.5276
X7.4252Y-4.0039
X7.4252Y-5.0906
X7.4331Y-2.7087
X7.4567Y-2.9646
X7.4567Y-3.2874
X7.4606Y-5.0276
X7.4626Y-4.7076
X7.4961Y-2.7087
X7.5037Y-3.2871
X7.5039Y-2.9291
X7.5083Y-4.8459
X7.5118Y-3.4252
X7.5118Y-5.0276
X7.5157Y-4.3209
X7.5295Y-4.0039
X7.531Y-4.498
X7.5354Y-2.5433
X7.5551Y-3.2874
X7.5591Y-2.0059
X7.5591Y-2.9646
X7.561Y-5.0276
X7.563Y-4.7047
X7.5669Y-2.7087
X7.5669Y-3.1457
X7.5748Y-3.4252
X7.578Y-4.0047
X7.578Y-4.3209
X7.5906Y-4.5748
X7.5945Y-4.4921
X7.6063Y-2.3307
X7.628Y-4.3209
X7.6299Y-2.7953
X7.6378Y-2.187
X7.6378Y-4.4331
X7.6417Y-3.7972
X7.6476Y-1.8287
X7.6524Y-3.1732
X7.6535Y-3.9252
X7.6575Y-2.0079
X7.6614Y-4.626
X7.6614Y-5.0699
X7.6614Y-4.7047
X7.6634Y-4.1398
X7.6772Y-2.7638
X7.6929Y-4.1772
X7.7006Y-3.106
X7.7018Y-4.879
X7.7047Y-2.9646
X7.7087Y-4.7047
X7.7165Y-1.8976
X7.7244Y-2.8346
X7.7264Y-3.9252
X7.7283Y-4.0059
X7.7283Y-4.3209
X7.7362Y-5.0984
X7.7559Y-3.2874
X7.7598Y-2.3307
X7.7598Y-4.7047
X7.7604Y-5.0276
X7.7717Y-3.5433
X7.7748Y-4.5787
X7.7795Y-2.811
X7.7835Y-3.9252
X7.7874Y-4.374
X7.8053Y-2.1437
X7.8071Y-2.3307
X7.815Y-4.4331
X7.8386Y-3.0546
X7.8543Y-3.2047
X7.8583Y-2.0059
X7.8583Y-2.3307
X7.8615Y-1.9469
X7.8622Y-4.9685
X7.8641Y-4.7824
X7.8701Y-4.061
X7.8819Y-3.3661
X7.9055Y-1.8425
X7.9055Y-2.8898
X7.9365Y-2.5438
X7.937Y-3.0118
X7.9449Y-3.6772
X7.9449Y-3.8268
X7.9449Y-4.063
X7.9488Y-4.6614
X7.9616Y-3.2343
X7.9646Y-2.6614
X7.9784Y-2.9679
X7.9843Y-4.3228
X7.9843Y-4.9173
X7.9961Y-4.8071
X8.0039Y-3.437
X8.0118Y-3.1024
X8.0394Y-4.8819
X8.0433Y-4.2795
X8.0551Y-3.2362
X8.0551Y-3.437
X8.0591Y-2.5472
X8.0611Y-3.0925
X8.0936Y-4.2804
X8.0984Y-4.9646
X8.1142Y-3.1299
X8.1339Y-4.2087
X8.1339Y-5.0039
X8.1677Y-4.0874
T4
X6.1087Y-5.6457
X6.1126Y-3.5984
X6.2087Y-5.5457
X6.2087Y-5.6457
X6.2126Y-3.4984
X6.2126Y-3.5984
X6.3087Y-5.6457
X6.3126Y-3.5984
X6.3934Y-5.6457
X6.3961Y-3.5984
X6.4934Y-5.5457
X6.4934Y-5.6457
X6.4961Y-3.4984
X6.4961Y-3.5984
X6.5934Y-5.6457
X6.5961Y-3.5984
X6.6782Y-5.6457
X6.6795Y-3.5984
X6.7782Y-5.5457
X6.7782Y-5.6457
X6.7795Y-3.4984
X6.7795Y-3.5984
X6.8782Y-5.6457
X6.8795Y-3.5984
X6.963Y-3.5984
X6.963Y-5.6457
X7.063Y-3.4984
X7.063Y-3.5984
X7.063Y-5.5457
X7.063Y-5.6457
X7.163Y-3.5984
X7.163Y-5.6457
T5
X5.4526Y-2.4868
X5.4526Y-2.5868
X5.4537Y-4.786
X5.4537Y-4.886
X5.6533Y-2.4868
X5.6533Y-2.5868
X5.6533Y-4.786
X5.6533Y-4.886
T6
X3.8238Y-2.0986
X3.8238Y-2.1986
X3.8238Y-2.2986
X3.8238Y-2.3986
X3.8238Y-2.4986
X3.8238Y-2.5986
X3.8238Y-2.6986
X3.8238Y-2.7986
X3.8238Y-2.8986
X3.8238Y-2.9986
X4.0943Y-5.9646
X4.1943Y-5.9646
X4.2943Y-5.9646
X4.3943Y-5.9646
X4.4943Y-5.9646
X4.5943Y-5.9646
X4.6943Y-5.9646
X4.7943Y-5.9646
X4.8943Y-5.9646
X4.9943Y-5.9646
X5.0943Y-5.9646
X5.1943Y-5.9646
X5.2943Y-5.9646
X5.3943Y-5.9646
X5.4943Y-5.9646
X5.5943Y-5.9646
X5.8553Y-2.0978
X5.8553Y-2.1978
X5.8553Y-2.2978
X5.8553Y-2.3978
X5.8553Y-2.4978
X5.8553Y-2.5978
X5.8553Y-2.6978
X5.8553Y-2.7978
X5.8553Y-2.8978
X5.8553Y-2.9978
X6.0915Y-2.0978
X6.0915Y-2.1978
X6.0915Y-2.2978
X6.0915Y-2.3978
X6.0915Y-2.4978
X6.0915Y-2.5978
X6.0915Y-2.6978
X6.0915Y-2.7978
X6.0915Y-2.8978
X6.0915Y-2.9978
X6.3581Y-5.9646
X6.4581Y-5.9646
X6.5581Y-5.9646
X6.6581Y-5.9646
X6.7581Y-5.9646
X6.8581Y-5.9646
X6.9581Y-5.9646
X7.0581Y-5.9646
X7.1581Y-5.9646
X7.2581Y-5.9646
X7.3581Y-5.9646
X7.4581Y-5.9646
X7.5581Y-5.9646
X7.6581Y-5.9646
X7.7581Y-5.9646
X7.8581Y-5.9646
X8.1191Y-2.0978
X8.1191Y-2.1978
X8.1191Y-2.2978
X8.1191Y-2.3978
X8.1191Y-2.4978
X8.1191Y-2.5978
X8.1191Y-2.6978
X8.1191Y-2.7978
X8.1191Y-2.8978
X8.1191Y-2.9978
T7
X4.1395Y-1.7953
X4.1395Y-1.8953
X4.1395Y-1.9953
X4.1395Y-4.0945
X4.1395Y-4.1945
X4.1395Y-4.2945
T8
X4.0402Y-3.654
X4.0402Y-5.4003
X4.1386Y-3.654
X4.1386Y-5.4003
X4.237Y-3.654
X4.237Y-5.4003
X4.7479Y-3.654
X4.7479Y-5.4003
X4.8463Y-3.654
X4.8463Y-5.4003
X4.9447Y-3.654
X4.9447Y-5.4003
X5.4555Y-3.654
X5.4555Y-5.4003
X5.5539Y-3.654
X5.5539Y-5.4003
X5.6523Y-3.654
X5.6523Y-5.4003
T9
X7.5272Y-5.5748
X7.5272Y-5.6748
X7.6272Y-5.5748
X7.6272Y-5.6748
X7.7272Y-5.5748
X7.7272Y-5.6748
X7.8272Y-5.5748
X7.8272Y-5.6748
X7.9272Y-5.5748
X7.9272Y-5.6748
T10
X3.9615Y-3.3785
X3.9615Y-5.6758
X4.3157Y-3.3785
X4.3157Y-5.6758
X4.6692Y-3.3785
X4.6692Y-5.6758
X5.0234Y-3.3785
X5.0234Y-5.6758
X5.3768Y-3.3785
X5.3768Y-5.6758
X5.731Y-3.3785
X5.731Y-5.6758
T11
X3.8697Y-1.8268
X3.8701Y-5.9236
X5.8189Y-5.9232
X5.8193Y-1.8268
X6.1335Y-1.8268
X6.1339Y-5.9232
X8.0819Y-1.8268
X8.0825Y-5.9228
T12
X5.9467Y-3.5787
X5.9467Y-3.6083
X5.9467Y-3.6378
X5.9467Y-3.6673
X5.9467Y-3.6969
X5.9467Y-5.6732
X5.9467Y-5.7028
X5.9467Y-5.7323
X5.9467Y-5.7618
X5.9467Y-5.7913
X5.9469Y-1.8465
X5.9469Y-1.876
X5.9469Y-1.9055
X5.9469Y-1.935
X5.9469Y-1.9646
X6.0057Y-3.5787
X6.0057Y-3.6083
X6.0057Y-3.6378
X6.0057Y-3.6673
X6.0057Y-3.6969
X6.0057Y-5.6732
X6.0057Y-5.7028
X6.0057Y-5.7323
X6.0057Y-5.7618
X6.0057Y-5.7913
X6.0059Y-1.8465
X6.0059Y-1.876
X6.0059Y-1.9055
X6.0059Y-1.935
X6.0059Y-1.9646
T13
X4.1376Y-2.5463
X4.1376Y-4.8362
X4.8423Y-4.1945
X4.8423Y-4.6236
X4.8423Y-5.052
X4.8502Y-1.8976
X4.8502Y-2.3264
X4.8502Y-2.7535
X5.5549Y-2.1104
X5.5575Y-4.4071
T2
G00X4.1179Y-2.3526
M15
G01X4.1573Y-2.3526
M16
G05
G00X4.1573Y-5.0299
M15
G01X4.1179Y-5.0299
M16
G05
G00X4.6486Y-4.2142
M15
G01X4.6486Y-4.1748
M16
G05
G00X4.6486Y-4.6433
M15
G01X4.6486Y-4.6039
M16
G05
G00X4.6486Y-5.0717
M15
G01X4.6486Y-5.0323
M16
G05
G00X4.6565Y-1.9173
M15
G01X4.6565Y-1.878
M16
G05
G00X4.6565Y-2.3461
M15
G01X4.6565Y-2.3067
M16
G05
G00X4.6565Y-2.7732
M15
G01X4.6565Y-2.7339
M16
G05
G00X5.5746Y-2.3041
M15
G01X5.5352Y-2.3041
M16
G05
G00X5.7512Y-4.3874
M15
G01X5.7512Y-4.4268
M16
G05
T3
G00X4.1199Y-2.6793
M15
G01X4.1553Y-2.6793
M16
G05
G00X4.1238Y-2.8014
M15
G01X4.1514Y-2.8014
M16
G05
G00X4.1514Y-4.5811
M15
G01X4.1238Y-4.5811
M16
G05
G00X4.1553Y-4.7031
M15
G01X4.1199Y-4.7031
M16
G05
G00X4.9754Y-4.2122
M15
G01X4.9754Y-4.1768
M16
G05
G00X4.9754Y-4.6413
M15
G01X4.9754Y-4.6059
M16
G05
G00X4.9754Y-5.0697
M15
G01X4.9754Y-5.0343
M16
G05
G00X4.9833Y-1.9154
M15
G01X4.9833Y-1.8799
M16
G05
G00X4.9833Y-2.3441
M15
G01X4.9833Y-2.3087
M16
G05
G00X4.9833Y-2.7713
M15
G01X4.9833Y-2.7358
M16
G05
G00X5.0974Y-4.2083
M15
G01X5.0974Y-4.1807
M16
G05
G00X5.0974Y-4.6374
M15
G01X5.0974Y-4.6098
M16
G05
G00X5.0974Y-5.0657
M15
G01X5.0974Y-5.0382
M16
G05
G00X5.1053Y-1.9114
M15
G01X5.1053Y-1.8839
M16
G05
G00X5.1053Y-2.3402
M15
G01X5.1053Y-2.3126
M16
G05
G00X5.1053Y-2.7673
M15
G01X5.1053Y-2.7398
M16
G05
G00X5.3024Y-4.3933
M15
G01X5.3024Y-4.4209
M16
G05
G00X5.4244Y-4.3894
M15
G01X5.4244Y-4.4248
M16
G05
G00X5.5687Y-1.8553
M15
G01X5.5411Y-1.8553
M16
G05
G00X5.5726Y-1.9774
M15
G01X5.5372Y-1.9774
M16
G05
T0
M30
