%TF.GenerationSoftware,KiCad,Pcbnew,(5.99.0-10623-gbaf868fce7)*%
%TF.CreationDate,2021-05-29T08:15:44+02:00*%
%TF.ProjectId,voltage_processor,766f6c74-6167-4655-9f70-726f63657373,6*%
%TF.SameCoordinates,Original*%
%TF.FileFunction,Soldermask,Top*%
%TF.FilePolarity,Negative*%
%FSLAX46Y46*%
G04 Gerber Fmt 4.6, Leading zero omitted, Abs format (unit mm)*
G04 Created by KiCad (PCBNEW (5.99.0-10623-gbaf868fce7)) date 2021-05-29 08:15:44*
%MOMM*%
%LPD*%
G01*
G04 APERTURE LIST*
G04 Aperture macros list*
%AMRoundRect*
0 Rectangle with rounded corners*
0 $1 Rounding radius*
0 $2 $3 $4 $5 $6 $7 $8 $9 X,Y pos of 4 corners*
0 Add a 4 corners polygon primitive as box body*
4,1,4,$2,$3,$4,$5,$6,$7,$8,$9,$2,$3,0*
0 Add four circle primitives for the rounded corners*
1,1,$1+$1,$2,$3*
1,1,$1+$1,$4,$5*
1,1,$1+$1,$6,$7*
1,1,$1+$1,$8,$9*
0 Add four rect primitives between the rounded corners*
20,1,$1+$1,$2,$3,$4,$5,0*
20,1,$1+$1,$4,$5,$6,$7,0*
20,1,$1+$1,$6,$7,$8,$9,0*
20,1,$1+$1,$8,$9,$2,$3,0*%
%AMFreePoly0*
4,1,9,3.862500,-0.866500,0.737500,-0.866500,0.737500,-0.450000,-0.737500,-0.450000,-0.737500,0.450000,0.737500,0.450000,0.737500,0.866500,3.862500,0.866500,3.862500,-0.866500,3.862500,-0.866500,$1*%
G04 Aperture macros list end*
%ADD10RoundRect,0.243750X0.243750X0.456250X-0.243750X0.456250X-0.243750X-0.456250X0.243750X-0.456250X0*%
%ADD11RoundRect,0.243750X-0.243750X-0.456250X0.243750X-0.456250X0.243750X0.456250X-0.243750X0.456250X0*%
%ADD12RoundRect,0.243750X0.456250X-0.243750X0.456250X0.243750X-0.456250X0.243750X-0.456250X-0.243750X0*%
%ADD13C,1.676400*%
%ADD14RoundRect,0.150000X0.150000X-0.825000X0.150000X0.825000X-0.150000X0.825000X-0.150000X-0.825000X0*%
%ADD15C,4.000000*%
%ADD16R,2.300000X1.100000*%
%ADD17R,1.100000X2.300000*%
%ADD18R,1.800000X2.600000*%
%ADD19R,1.648460X1.648460*%
%ADD20C,1.648460*%
%ADD21C,2.794000*%
%ADD22R,1.800000X1.800000*%
%ADD23C,1.800000*%
%ADD24RoundRect,0.243750X-0.456250X0.243750X-0.456250X-0.243750X0.456250X-0.243750X0.456250X0.243750X0*%
%ADD25R,1.650000X1.650000*%
%ADD26C,1.650000*%
%ADD27R,1.000000X1.000000*%
%ADD28RoundRect,0.070000X-0.650000X-0.300000X0.650000X-0.300000X0.650000X0.300000X-0.650000X0.300000X0*%
%ADD29C,0.500000*%
%ADD30R,2.600000X1.800000*%
%ADD31R,0.900000X1.200000*%
%ADD32C,1.635000*%
%ADD33RoundRect,0.070000X0.650000X0.300000X-0.650000X0.300000X-0.650000X-0.300000X0.650000X-0.300000X0*%
%ADD34R,1.300000X0.900000*%
%ADD35FreePoly0,180.000000*%
%ADD36R,1.700000X1.700000*%
%ADD37O,1.700000X1.700000*%
G04 APERTURE END LIST*
D10*
%TO.C,R26*%
X177600000Y-46600000D03*
X175600000Y-46600000D03*
%TD*%
D11*
%TO.C,R68*%
X183300000Y-111100000D03*
X185300000Y-111100000D03*
%TD*%
D12*
%TO.C,R78*%
X160750000Y-108350000D03*
X160750000Y-106350000D03*
%TD*%
D13*
%TO.C,ATV_COMP2*%
X155160000Y-143400000D03*
X157700000Y-143400000D03*
X157700000Y-140860000D03*
X160240000Y-143400000D03*
%TD*%
D10*
%TO.C,R58*%
X197100000Y-96450000D03*
X195100000Y-96450000D03*
%TD*%
D13*
%TO.C,CRSFD2*%
X162393333Y-143400000D03*
X164933333Y-143400000D03*
X164933333Y-140860000D03*
X167473333Y-143400000D03*
%TD*%
D14*
%TO.C,IC3*%
X175495000Y-126175000D03*
X176765000Y-126175000D03*
X178035000Y-126175000D03*
X179305000Y-126175000D03*
X180575000Y-126175000D03*
X181845000Y-126175000D03*
X183115000Y-126175000D03*
X184385000Y-126175000D03*
X184385000Y-121225000D03*
X183115000Y-121225000D03*
X181845000Y-121225000D03*
X180575000Y-121225000D03*
X179305000Y-121225000D03*
X178035000Y-121225000D03*
X176765000Y-121225000D03*
X175495000Y-121225000D03*
%TD*%
D15*
%TO.C,J10*%
X141094949Y-53605000D03*
D16*
X141094949Y-47125000D03*
X141094949Y-50225000D03*
X141094949Y-58525000D03*
%TD*%
D15*
%TO.C,J7*%
X123194949Y-69940000D03*
D17*
X129674949Y-69940000D03*
X126574949Y-69940000D03*
X118274949Y-69940000D03*
%TD*%
D11*
%TO.C,R72*%
X174300000Y-99600000D03*
X176300000Y-99600000D03*
%TD*%
D18*
%TO.C,C1*%
X177775000Y-136250000D03*
X177775000Y-131750000D03*
%TD*%
D11*
%TO.C,C31*%
X174300000Y-96400000D03*
X176300000Y-96400000D03*
%TD*%
D19*
%TO.C,OFFSET2*%
X143569309Y-137167300D03*
D20*
X141069949Y-137167300D03*
X138570589Y-137167300D03*
D21*
X145568289Y-144165000D03*
X136571609Y-144165000D03*
%TD*%
D22*
%TO.C,D6*%
X143594949Y-121565000D03*
D23*
X143594949Y-124105000D03*
%TD*%
D10*
%TO.C,R75*%
X161700000Y-115600000D03*
X159700000Y-115600000D03*
%TD*%
D15*
%TO.C,MH8*%
X147810000Y-46400000D03*
%TD*%
D24*
%TO.C,R22*%
X167794949Y-47493349D03*
X167794949Y-49493349D03*
%TD*%
D10*
%TO.C,R7*%
X200400000Y-61400000D03*
X198400000Y-61400000D03*
%TD*%
D11*
%TO.C,R21*%
X156800000Y-123800000D03*
X158800000Y-123800000D03*
%TD*%
D10*
%TO.C,R102*%
X168800000Y-65500000D03*
X166800000Y-65500000D03*
%TD*%
D13*
%TO.C,ATV_COMP1*%
X155260000Y-91400000D03*
X157800000Y-91400000D03*
X157800000Y-88860000D03*
X160340000Y-91400000D03*
%TD*%
D10*
%TO.C,R63*%
X187800000Y-99700000D03*
X185800000Y-99700000D03*
%TD*%
D24*
%TO.C,R90*%
X157600000Y-134700000D03*
X157600000Y-136700000D03*
%TD*%
D15*
%TO.C,J1*%
X105094949Y-122840000D03*
D16*
X105094949Y-116360000D03*
X105094949Y-119460000D03*
X105094949Y-127760000D03*
%TD*%
D11*
%TO.C,C30*%
X170400000Y-114300000D03*
X172400000Y-114300000D03*
%TD*%
D19*
%TO.C,OFFSET1*%
X138570589Y-92812700D03*
D20*
X141069949Y-92812700D03*
X143569309Y-92812700D03*
D21*
X136571609Y-85815000D03*
X145568289Y-85815000D03*
%TD*%
D10*
%TO.C,R106*%
X172800000Y-99600000D03*
X170800000Y-99600000D03*
%TD*%
D11*
%TO.C,R103*%
X197600000Y-73400000D03*
X199600000Y-73400000D03*
%TD*%
D15*
%TO.C,MH7*%
X98290000Y-46400000D03*
%TD*%
D12*
%TO.C,R10*%
X159100000Y-81600000D03*
X159100000Y-79600000D03*
%TD*%
%TO.C,C15*%
X177794949Y-67493349D03*
X177794949Y-65493349D03*
%TD*%
D24*
%TO.C,R19*%
X171500000Y-65500000D03*
X171500000Y-67500000D03*
%TD*%
D13*
%TO.C,LED1+1*%
X176860000Y-91400000D03*
X179400000Y-91400000D03*
X179400000Y-88860000D03*
X181940000Y-91400000D03*
%TD*%
D10*
%TO.C,R61*%
X200800000Y-99700000D03*
X198800000Y-99700000D03*
%TD*%
D11*
%TO.C,R16*%
X193100000Y-88800000D03*
X195100000Y-88800000D03*
%TD*%
D10*
%TO.C,R15*%
X169300000Y-85200000D03*
X167300000Y-85200000D03*
%TD*%
D25*
%TO.C,J17*%
X201350000Y-141600000D03*
D26*
X201350000Y-144140000D03*
X198810000Y-141600000D03*
X198810000Y-144140000D03*
X196270000Y-141600000D03*
X196270000Y-144140000D03*
X193730000Y-141600000D03*
X193730000Y-144140000D03*
X191190000Y-141600000D03*
X191190000Y-144140000D03*
%TD*%
D13*
%TO.C,LED2+1*%
X176860000Y-143400000D03*
X179400000Y-143400000D03*
X179400000Y-140860000D03*
X181940000Y-143400000D03*
%TD*%
D14*
%TO.C,U1*%
X191970000Y-57450000D03*
X193240000Y-57450000D03*
X194510000Y-57450000D03*
X195780000Y-57450000D03*
X197050000Y-57450000D03*
X198320000Y-57450000D03*
X199590000Y-57450000D03*
X199590000Y-52500000D03*
X198320000Y-52500000D03*
X197050000Y-52500000D03*
X195780000Y-52500000D03*
X194510000Y-52500000D03*
X193240000Y-52500000D03*
X191970000Y-52500000D03*
%TD*%
D10*
%TO.C,R48*%
X156500000Y-84300000D03*
X154500000Y-84300000D03*
%TD*%
%TO.C,R69*%
X169300000Y-99600000D03*
X167300000Y-99600000D03*
%TD*%
D13*
%TO.C,LED2-1*%
X169626666Y-143400000D03*
X172166666Y-140860000D03*
X172166666Y-143400000D03*
X174706666Y-143400000D03*
%TD*%
D11*
%TO.C,C28*%
X163800000Y-99600000D03*
X165800000Y-99600000D03*
%TD*%
D27*
%TO.C,D7*%
X204000000Y-117050000D03*
X204000000Y-114550000D03*
%TD*%
D24*
%TO.C,R36*%
X194300000Y-114400000D03*
X194300000Y-116400000D03*
%TD*%
D28*
%TO.C,Q3*%
X158244949Y-64443349D03*
X158244949Y-66343349D03*
X160344949Y-65393349D03*
%TD*%
D12*
%TO.C,C32*%
X167400000Y-113200000D03*
X167400000Y-111200000D03*
%TD*%
D10*
%TO.C,R32*%
X199700000Y-48300000D03*
X197700000Y-48300000D03*
%TD*%
%TO.C,R49*%
X160294949Y-59993349D03*
X158294949Y-59993349D03*
%TD*%
%TO.C,R52*%
X180700000Y-114100000D03*
X178700000Y-114100000D03*
%TD*%
D29*
%TO.C,mouse-bite-2mm-slot_3*%
X152544949Y-144850000D03*
X151044949Y-144850000D03*
X152544949Y-146350000D03*
X151044949Y-146350000D03*
X151044949Y-145600000D03*
X151044949Y-144100000D03*
X152544949Y-145600000D03*
X152544949Y-144100000D03*
X151044949Y-147100000D03*
X152544949Y-147100000D03*
%TD*%
D12*
%TO.C,R38*%
X188800000Y-72200000D03*
X188800000Y-70200000D03*
%TD*%
D29*
%TO.C,mouse-bite-2mm-slot_2*%
X152544949Y-90900000D03*
X151044949Y-92400000D03*
X151044949Y-93900000D03*
X152544949Y-93150000D03*
X151044949Y-90900000D03*
X151044949Y-93150000D03*
X151044949Y-91650000D03*
X152544949Y-92400000D03*
X152544949Y-91650000D03*
X152544949Y-93900000D03*
%TD*%
D14*
%TO.C,U9*%
X179940000Y-108225000D03*
X181210000Y-108225000D03*
X182480000Y-108225000D03*
X183750000Y-108225000D03*
X185020000Y-108225000D03*
X186290000Y-108225000D03*
X187560000Y-108225000D03*
X187560000Y-103275000D03*
X186290000Y-103275000D03*
X185020000Y-103275000D03*
X183750000Y-103275000D03*
X182480000Y-103275000D03*
X181210000Y-103275000D03*
X179940000Y-103275000D03*
%TD*%
D12*
%TO.C,C11*%
X173800000Y-51200000D03*
X173800000Y-49200000D03*
%TD*%
D30*
%TO.C,C4*%
X198300000Y-132925000D03*
X202800000Y-132925000D03*
%TD*%
D24*
%TO.C,R18*%
X183700000Y-70100000D03*
X183700000Y-72100000D03*
%TD*%
D12*
%TO.C,R88*%
X165600000Y-134300000D03*
X165600000Y-132300000D03*
%TD*%
D14*
%TO.C,U10*%
X167355000Y-108225000D03*
X168625000Y-108225000D03*
X169895000Y-108225000D03*
X171165000Y-108225000D03*
X172435000Y-108225000D03*
X173705000Y-108225000D03*
X174975000Y-108225000D03*
X176245000Y-108225000D03*
X176245000Y-103275000D03*
X174975000Y-103275000D03*
X173705000Y-103275000D03*
X172435000Y-103275000D03*
X171165000Y-103275000D03*
X169895000Y-103275000D03*
X168625000Y-103275000D03*
X167355000Y-103275000D03*
%TD*%
D11*
%TO.C,R13*%
X166794949Y-61493349D03*
X168794949Y-61493349D03*
%TD*%
%TO.C,R51*%
X190800000Y-111100000D03*
X192800000Y-111100000D03*
%TD*%
D28*
%TO.C,Q4*%
X157844949Y-55043349D03*
X157844949Y-56943349D03*
X159944949Y-55993349D03*
%TD*%
D14*
%TO.C,IC2*%
X189374949Y-81943349D03*
X190644949Y-81943349D03*
X191914949Y-81943349D03*
X193184949Y-81943349D03*
X194454949Y-81943349D03*
X195724949Y-81943349D03*
X196994949Y-81943349D03*
X198264949Y-81943349D03*
X198264949Y-76993349D03*
X196994949Y-76993349D03*
X195724949Y-76993349D03*
X194454949Y-76993349D03*
X193184949Y-76993349D03*
X191914949Y-76993349D03*
X190644949Y-76993349D03*
X189374949Y-76993349D03*
%TD*%
D27*
%TO.C,D8*%
X201900000Y-114550000D03*
X201900000Y-117050000D03*
%TD*%
D12*
%TO.C,R27*%
X174600000Y-67600000D03*
X174600000Y-65600000D03*
%TD*%
D24*
%TO.C,R70*%
X163250000Y-102700000D03*
X163250000Y-104700000D03*
%TD*%
D15*
%TO.C,MH4*%
X205294949Y-150440000D03*
%TD*%
D29*
%TO.C,mouse-bite-2mm-slot_1*%
X152550000Y-49900000D03*
X152550000Y-49150000D03*
X152550000Y-48400000D03*
X151050000Y-46900000D03*
X151050000Y-47650000D03*
X152550000Y-47650000D03*
X151050000Y-49900000D03*
X152550000Y-46900000D03*
X151050000Y-49150000D03*
X151050000Y-48400000D03*
%TD*%
D24*
%TO.C,R50*%
X187700000Y-119800000D03*
X187700000Y-121800000D03*
%TD*%
D10*
%TO.C,R28*%
X177600000Y-48800000D03*
X175600000Y-48800000D03*
%TD*%
D30*
%TO.C,C3*%
X190150000Y-132925000D03*
X194650000Y-132925000D03*
%TD*%
D10*
%TO.C,R23*%
X177294949Y-73200000D03*
X175294949Y-73200000D03*
%TD*%
D15*
%TO.C,MH2*%
X155790000Y-46400000D03*
%TD*%
D14*
%TO.C,U6*%
X176349949Y-57468349D03*
X177619949Y-57468349D03*
X178889949Y-57468349D03*
X180159949Y-57468349D03*
X181429949Y-57468349D03*
X182699949Y-57468349D03*
X183969949Y-57468349D03*
X185239949Y-57468349D03*
X185239949Y-52518349D03*
X183969949Y-52518349D03*
X182699949Y-52518349D03*
X181429949Y-52518349D03*
X180159949Y-52518349D03*
X178889949Y-52518349D03*
X177619949Y-52518349D03*
X176349949Y-52518349D03*
%TD*%
D11*
%TO.C,R67*%
X185700000Y-96450000D03*
X187700000Y-96450000D03*
%TD*%
D15*
%TO.C,J9*%
X123194949Y-59090000D03*
D17*
X129674949Y-59090000D03*
X126574949Y-59090000D03*
X118274949Y-59090000D03*
%TD*%
D14*
%TO.C,U8*%
X191210000Y-108225000D03*
X192480000Y-108225000D03*
X193750000Y-108225000D03*
X195020000Y-108225000D03*
X196290000Y-108225000D03*
X197560000Y-108225000D03*
X198830000Y-108225000D03*
X198830000Y-103275000D03*
X197560000Y-103275000D03*
X196290000Y-103275000D03*
X195020000Y-103275000D03*
X193750000Y-103275000D03*
X192480000Y-103275000D03*
X191210000Y-103275000D03*
%TD*%
D31*
%TO.C,D1*%
X192350000Y-137050000D03*
X189050000Y-137050000D03*
%TD*%
D15*
%TO.C,MH5*%
X147800000Y-150450000D03*
%TD*%
D24*
%TO.C,R12*%
X159100000Y-74700000D03*
X159100000Y-76700000D03*
%TD*%
D14*
%TO.C,IC4*%
X189495000Y-126175000D03*
X190765000Y-126175000D03*
X192035000Y-126175000D03*
X193305000Y-126175000D03*
X194575000Y-126175000D03*
X195845000Y-126175000D03*
X197115000Y-126175000D03*
X198385000Y-126175000D03*
X198385000Y-121225000D03*
X197115000Y-121225000D03*
X195845000Y-121225000D03*
X194575000Y-121225000D03*
X193305000Y-121225000D03*
X192035000Y-121225000D03*
X190765000Y-121225000D03*
X189495000Y-121225000D03*
%TD*%
D10*
%TO.C,R71*%
X172400000Y-111500000D03*
X170400000Y-111500000D03*
%TD*%
D24*
%TO.C,R35*%
X181900000Y-128600000D03*
X181900000Y-130600000D03*
%TD*%
D10*
%TO.C,R56*%
X201300000Y-111200000D03*
X199300000Y-111200000D03*
%TD*%
D13*
%TO.C,LED1-1*%
X169660000Y-91400000D03*
X172200000Y-91400000D03*
X172200000Y-88860000D03*
X174740000Y-91400000D03*
%TD*%
D11*
%TO.C,R54*%
X178700000Y-111100000D03*
X180700000Y-111100000D03*
%TD*%
D14*
%TO.C,U11*%
X164810051Y-126156651D03*
X166080051Y-126156651D03*
X167350051Y-126156651D03*
X168620051Y-126156651D03*
X169890051Y-126156651D03*
X171160051Y-126156651D03*
X172430051Y-126156651D03*
X172430051Y-121206651D03*
X171160051Y-121206651D03*
X169890051Y-121206651D03*
X168620051Y-121206651D03*
X167350051Y-121206651D03*
X166080051Y-121206651D03*
X164810051Y-121206651D03*
%TD*%
D10*
%TO.C,R37*%
X194600000Y-64600000D03*
X192600000Y-64600000D03*
%TD*%
D11*
%TO.C,R25*%
X178794949Y-70093349D03*
X180794949Y-70093349D03*
%TD*%
D12*
%TO.C,R44*%
X162794949Y-66993349D03*
X162794949Y-64993349D03*
%TD*%
D31*
%TO.C,D2*%
X200050000Y-137050000D03*
X203350000Y-137050000D03*
%TD*%
D11*
%TO.C,R55*%
X191100000Y-96450000D03*
X193100000Y-96450000D03*
%TD*%
D10*
%TO.C,R62*%
X202800000Y-126300000D03*
X200800000Y-126300000D03*
%TD*%
D22*
%TO.C,D3*%
X138494949Y-63165000D03*
D23*
X138494949Y-65705000D03*
%TD*%
D15*
%TO.C,MH3*%
X205280000Y-46400000D03*
%TD*%
D24*
%TO.C,R30*%
X185794949Y-60800000D03*
X185794949Y-62800000D03*
%TD*%
D19*
%TO.C,ATNVRT2*%
X107619309Y-137167300D03*
D20*
X105119949Y-137167300D03*
X102620589Y-137167300D03*
D21*
X109618289Y-144165000D03*
X100621609Y-144165000D03*
%TD*%
D11*
%TO.C,R40*%
X174900000Y-116800000D03*
X176900000Y-116800000D03*
%TD*%
D15*
%TO.C,J12*%
X122994949Y-106540000D03*
D17*
X129474949Y-106540000D03*
X126374949Y-106540000D03*
X118074949Y-106540000D03*
%TD*%
D14*
%TO.C,U4*%
X162984949Y-81968349D03*
X164254949Y-81968349D03*
X165524949Y-81968349D03*
X166794949Y-81968349D03*
X168064949Y-81968349D03*
X169334949Y-81968349D03*
X170604949Y-81968349D03*
X170604949Y-77018349D03*
X169334949Y-77018349D03*
X168064949Y-77018349D03*
X166794949Y-77018349D03*
X165524949Y-77018349D03*
X164254949Y-77018349D03*
X162984949Y-77018349D03*
%TD*%
D11*
%TO.C,R43*%
X170400000Y-117400000D03*
X172400000Y-117400000D03*
%TD*%
D15*
%TO.C,MH6*%
X98300000Y-150460000D03*
%TD*%
D24*
%TO.C,R24*%
X174600000Y-60800000D03*
X174600000Y-62800000D03*
%TD*%
D11*
%TO.C,R8*%
X192250000Y-48200000D03*
X194250000Y-48200000D03*
%TD*%
D22*
%TO.C,D4*%
X143594949Y-63165000D03*
D23*
X143594949Y-65705000D03*
%TD*%
D15*
%TO.C,J11*%
X122994949Y-128320000D03*
D17*
X129474949Y-128320000D03*
X126374949Y-128320000D03*
X118074949Y-128320000D03*
%TD*%
D12*
%TO.C,R29*%
X182294949Y-67493349D03*
X182294949Y-65493349D03*
%TD*%
D11*
%TO.C,R5*%
X198400000Y-64600000D03*
X200400000Y-64600000D03*
%TD*%
D27*
%TO.C,D9*%
X185350000Y-91100000D03*
X187850000Y-91100000D03*
%TD*%
D10*
%TO.C,R59*%
X204400000Y-120800000D03*
X202400000Y-120800000D03*
%TD*%
D12*
%TO.C,C13*%
X185794949Y-67493349D03*
X185794949Y-65493349D03*
%TD*%
D32*
%TO.C,S1*%
X105143949Y-104000000D03*
X105143949Y-106540000D03*
X105143949Y-109080000D03*
%TD*%
D14*
%TO.C,U5*%
X163484949Y-57468349D03*
X164754949Y-57468349D03*
X166024949Y-57468349D03*
X167294949Y-57468349D03*
X168564949Y-57468349D03*
X169834949Y-57468349D03*
X171104949Y-57468349D03*
X171104949Y-52518349D03*
X169834949Y-52518349D03*
X168564949Y-52518349D03*
X167294949Y-52518349D03*
X166024949Y-52518349D03*
X164754949Y-52518349D03*
X163484949Y-52518349D03*
%TD*%
D28*
%TO.C,Q2*%
X159900000Y-134425000D03*
X159900000Y-136325000D03*
X162000000Y-135375000D03*
%TD*%
D12*
%TO.C,C14*%
X188000000Y-51800000D03*
X188000000Y-49800000D03*
%TD*%
D10*
%TO.C,R105*%
X181500000Y-97700000D03*
X179500000Y-97700000D03*
%TD*%
D19*
%TO.C,ATNVRT1*%
X102620589Y-92812700D03*
D20*
X105119949Y-92812700D03*
X107619309Y-92812700D03*
D21*
X100621609Y-85815000D03*
X109618289Y-85815000D03*
%TD*%
D11*
%TO.C,R65*%
X183300000Y-114100000D03*
X185300000Y-114100000D03*
%TD*%
D22*
%TO.C,D5*%
X138524949Y-121565000D03*
D23*
X138524949Y-124105000D03*
%TD*%
D14*
%TO.C,IC1*%
X173854949Y-82093349D03*
X175124949Y-82093349D03*
X176394949Y-82093349D03*
X177664949Y-82093349D03*
X178934949Y-82093349D03*
X180204949Y-82093349D03*
X181474949Y-82093349D03*
X182744949Y-82093349D03*
X182744949Y-77143349D03*
X181474949Y-77143349D03*
X180204949Y-77143349D03*
X178934949Y-77143349D03*
X177664949Y-77143349D03*
X176394949Y-77143349D03*
X175124949Y-77143349D03*
X173854949Y-77143349D03*
%TD*%
D19*
%TO.C,CROSSFADE2*%
X125594309Y-137167300D03*
D20*
X123094949Y-137167300D03*
X120595589Y-137167300D03*
D21*
X127593289Y-144165000D03*
X118596609Y-144165000D03*
%TD*%
D11*
%TO.C,R87*%
X156800000Y-120200000D03*
X158800000Y-120200000D03*
%TD*%
D15*
%TO.C,J13*%
X122994949Y-117440000D03*
D17*
X129474949Y-117440000D03*
X126374949Y-117440000D03*
X118074949Y-117440000D03*
%TD*%
D12*
%TO.C,R41*%
X162800000Y-62500000D03*
X162800000Y-60500000D03*
%TD*%
D24*
%TO.C,R66*%
X198900000Y-114400000D03*
X198900000Y-116400000D03*
%TD*%
D32*
%TO.C,S2*%
X105143949Y-45600000D03*
X105143949Y-48140000D03*
X105143949Y-50680000D03*
%TD*%
D12*
%TO.C,R82*%
X159940000Y-127720300D03*
X159940000Y-125720300D03*
%TD*%
D11*
%TO.C,R11*%
X175194949Y-70093349D03*
X177194949Y-70093349D03*
%TD*%
D10*
%TO.C,R17*%
X198800000Y-85500000D03*
X196800000Y-85500000D03*
%TD*%
D15*
%TO.C,J2*%
X105094949Y-64675000D03*
D16*
X105094949Y-71155000D03*
X105094949Y-68055000D03*
X105094949Y-59755000D03*
%TD*%
D11*
%TO.C,R60*%
X188000000Y-114100000D03*
X190000000Y-114100000D03*
%TD*%
D33*
%TO.C,Q1*%
X162000000Y-131900000D03*
X162000000Y-130000000D03*
X159900000Y-130950000D03*
%TD*%
D15*
%TO.C,J14*%
X141159949Y-111940000D03*
D17*
X134679949Y-111940000D03*
X137779949Y-111940000D03*
X146079949Y-111940000D03*
%TD*%
D24*
%TO.C,R33*%
X177794949Y-60800000D03*
X177794949Y-62800000D03*
%TD*%
%TO.C,R6*%
X202900000Y-50800000D03*
X202900000Y-52800000D03*
%TD*%
D10*
%TO.C,R53*%
X190000000Y-116800000D03*
X188000000Y-116800000D03*
%TD*%
%TO.C,R109*%
X181800000Y-48800000D03*
X179800000Y-48800000D03*
%TD*%
%TO.C,R20*%
X173294949Y-73200000D03*
X171294949Y-73200000D03*
%TD*%
D11*
%TO.C,R64*%
X194800000Y-111100000D03*
X196800000Y-111100000D03*
%TD*%
D15*
%TO.C,J8*%
X123194949Y-48200000D03*
D17*
X129674949Y-48200000D03*
X126574949Y-48200000D03*
X118274949Y-48200000D03*
%TD*%
D12*
%TO.C,R73*%
X186194949Y-83693349D03*
X186194949Y-81693349D03*
%TD*%
D11*
%TO.C,R47*%
X158300000Y-51400000D03*
X160300000Y-51400000D03*
%TD*%
%TO.C,R39*%
X190600000Y-71000000D03*
X192600000Y-71000000D03*
%TD*%
%TO.C,R14*%
X193100000Y-85500000D03*
X195100000Y-85500000D03*
%TD*%
D10*
%TO.C,R9*%
X194600000Y-61400000D03*
X192600000Y-61400000D03*
%TD*%
D19*
%TO.C,CROSSFADE1*%
X120595589Y-92812700D03*
D20*
X123094949Y-92812700D03*
X125594309Y-92812700D03*
D21*
X118596609Y-85815000D03*
X127593289Y-85815000D03*
%TD*%
D24*
%TO.C,R74*%
X165350000Y-111200000D03*
X165350000Y-113200000D03*
%TD*%
%TO.C,R34*%
X182294949Y-60800000D03*
X182294949Y-62800000D03*
%TD*%
D11*
%TO.C,R31*%
X184000000Y-48800000D03*
X186000000Y-48800000D03*
%TD*%
D18*
%TO.C,C2*%
X171600000Y-136200000D03*
X171600000Y-131700000D03*
%TD*%
D10*
%TO.C,R95*%
X185325000Y-116800000D03*
X183325000Y-116800000D03*
%TD*%
D11*
%TO.C,R57*%
X191000000Y-99700000D03*
X193000000Y-99700000D03*
%TD*%
D13*
%TO.C,CRSFD1*%
X162460000Y-91400000D03*
X165000000Y-91400000D03*
X165000000Y-88860000D03*
X167540000Y-91400000D03*
%TD*%
D34*
%TO.C,U2*%
X185944949Y-135993349D03*
D35*
X185857449Y-134493349D03*
D34*
X185944949Y-132993349D03*
%TD*%
D24*
%TO.C,R85*%
X157600000Y-129900000D03*
X157600000Y-131900000D03*
%TD*%
D10*
%TO.C,R46*%
X186000000Y-46600000D03*
X184000000Y-46600000D03*
%TD*%
D11*
%TO.C,R108*%
X163294949Y-47393349D03*
X165294949Y-47393349D03*
%TD*%
D27*
%TO.C,D10*%
X187850000Y-88800000D03*
X185350000Y-88800000D03*
%TD*%
D15*
%TO.C,MH1*%
X155800000Y-150450000D03*
%TD*%
D36*
%TO.C,J5*%
X161494949Y-151500000D03*
D37*
X164034949Y-151500000D03*
X166574949Y-151500000D03*
X169114949Y-151500000D03*
X171654949Y-151500000D03*
X174194949Y-151500000D03*
X176734949Y-151500000D03*
X179274949Y-151500000D03*
X181814949Y-151500000D03*
X184354949Y-151500000D03*
X186894949Y-151500000D03*
X189434949Y-151500000D03*
X191974949Y-151500000D03*
X194514949Y-151500000D03*
X197054949Y-151500000D03*
X199594949Y-151500000D03*
%TD*%
%TO.C,J6*%
X97125000Y-76165000D03*
D36*
X97125000Y-53305000D03*
D37*
X97125000Y-55845000D03*
X97125000Y-58385000D03*
X97125000Y-60925000D03*
X97125000Y-63465000D03*
X97125000Y-66005000D03*
X97125000Y-68545000D03*
X97125000Y-71085000D03*
X97125000Y-73625000D03*
%TD*%
D36*
%TO.C,J15*%
X154725000Y-53285000D03*
D37*
X154725000Y-55825000D03*
X154725000Y-58365000D03*
X154725000Y-60905000D03*
X154725000Y-63445000D03*
X154725000Y-65985000D03*
X154725000Y-68525000D03*
X154725000Y-71065000D03*
X154725000Y-73605000D03*
X154725000Y-76145000D03*
%TD*%
D36*
%TO.C,J3*%
X142094949Y-151500000D03*
D37*
X139554949Y-151500000D03*
X137014949Y-151500000D03*
X134474949Y-151500000D03*
X131934949Y-151500000D03*
X129394949Y-151500000D03*
X126854949Y-151500000D03*
X124314949Y-151500000D03*
X121774949Y-151500000D03*
X119234949Y-151500000D03*
X116694949Y-151500000D03*
X114154949Y-151500000D03*
X111614949Y-151500000D03*
X109074949Y-151500000D03*
X106534949Y-151500000D03*
X103994949Y-151500000D03*
%TD*%
%TO.C,J16*%
X206225000Y-76145000D03*
D36*
X206225000Y-53285000D03*
D37*
X206225000Y-55825000D03*
X206225000Y-58365000D03*
X206225000Y-60905000D03*
X206225000Y-63445000D03*
X206225000Y-65985000D03*
X206225000Y-68525000D03*
X206225000Y-71065000D03*
X206225000Y-73605000D03*
%TD*%
D36*
%TO.C,J4*%
X148725000Y-53285000D03*
D37*
X148725000Y-55825000D03*
X148725000Y-58365000D03*
X148725000Y-60905000D03*
X148725000Y-63445000D03*
X148725000Y-65985000D03*
X148725000Y-68525000D03*
X148725000Y-71065000D03*
X148725000Y-73605000D03*
X148725000Y-76145000D03*
%TD*%
M02*
