%TF.GenerationSoftware,KiCad,Pcbnew,(5.99.0-10623-gbaf868fce7)*%
%TF.CreationDate,2021-05-29T08:15:44+02:00*%
%TF.ProjectId,voltage_processor,766f6c74-6167-4655-9f70-726f63657373,6*%
%TF.SameCoordinates,Original*%
%TF.FileFunction,Profile,NP*%
%FSLAX46Y46*%
G04 Gerber Fmt 4.6, Leading zero omitted, Abs format (unit mm)*
G04 Created by KiCad (PCBNEW (5.99.0-10623-gbaf868fce7)) date 2021-05-29 08:15:44*
%MOMM*%
%LPD*%
G01*
G04 APERTURE LIST*
%TA.AperFunction,Profile*%
%ADD10C,0.050000*%
%TD*%
G04 APERTURE END LIST*
D10*
X150794949Y-50400000D02*
X152794949Y-50400000D01*
X152794949Y-50400000D02*
X152794949Y-90400000D01*
X152794949Y-90400000D02*
X150794949Y-90400000D01*
X150794949Y-90400000D02*
X150794949Y-50400000D01*
X150794949Y-147600000D02*
X150794949Y-150450000D01*
X98294949Y-43425000D02*
X147800000Y-43425000D01*
X95294949Y-150450000D02*
X95294949Y-46425000D01*
X147800000Y-43425000D02*
G75*
G02*
X150800000Y-46425000I0J-3000000D01*
G01*
X205278680Y-43425000D02*
G75*
G02*
X208278680Y-46425000I0J-3000000D01*
G01*
X147794949Y-153450000D02*
X98294949Y-153450000D01*
X208300000Y-147600000D02*
X208278680Y-46425000D01*
X95294949Y-46425000D02*
G75*
G02*
X98294949Y-43425000I3000000J0D01*
G01*
X208300000Y-147600000D02*
X208294949Y-150450000D01*
X150800000Y-143593349D02*
X150800000Y-94400000D01*
X152794949Y-147600000D02*
X150794949Y-147600000D01*
X150800000Y-94400000D02*
X152800000Y-94400000D01*
X150794949Y-150450000D02*
G75*
G02*
X147794949Y-153450000I-3000000J0D01*
G01*
X152794949Y-46425000D02*
G75*
G02*
X155794949Y-43425000I3000000J0D01*
G01*
X205294949Y-153450000D02*
X155794949Y-153450000D01*
X152800000Y-94400000D02*
X152800000Y-143593349D01*
X155794949Y-43425000D02*
X205278680Y-43425000D01*
X152794949Y-150450000D02*
X152794949Y-147600000D01*
X152800000Y-143593349D02*
X150800000Y-143593349D01*
X98294949Y-153450000D02*
G75*
G02*
X95294949Y-150450000I0J3000000D01*
G01*
X208294949Y-150450000D02*
G75*
G02*
X205294949Y-153450000I-3000000J0D01*
G01*
X150800000Y-46425000D02*
X152794949Y-46425000D01*
X155794949Y-153450000D02*
G75*
G02*
X152794949Y-150450000I0J3000000D01*
G01*
M02*
