%TF.GenerationSoftware,KiCad,Pcbnew,(5.99.0-10623-gbaf868fce7)*%
%TF.CreationDate,2021-05-29T08:15:44+02:00*%
%TF.ProjectId,voltage_processor,766f6c74-6167-4655-9f70-726f63657373,6*%
%TF.SameCoordinates,Original*%
%TF.FileFunction,Paste,Top*%
%TF.FilePolarity,Positive*%
%FSLAX46Y46*%
G04 Gerber Fmt 4.6, Leading zero omitted, Abs format (unit mm)*
G04 Created by KiCad (PCBNEW (5.99.0-10623-gbaf868fce7)) date 2021-05-29 08:15:44*
%MOMM*%
%LPD*%
G01*
G04 APERTURE LIST*
G04 Aperture macros list*
%AMRoundRect*
0 Rectangle with rounded corners*
0 $1 Rounding radius*
0 $2 $3 $4 $5 $6 $7 $8 $9 X,Y pos of 4 corners*
0 Add a 4 corners polygon primitive as box body*
4,1,4,$2,$3,$4,$5,$6,$7,$8,$9,$2,$3,0*
0 Add four circle primitives for the rounded corners*
1,1,$1+$1,$2,$3*
1,1,$1+$1,$4,$5*
1,1,$1+$1,$6,$7*
1,1,$1+$1,$8,$9*
0 Add four rect primitives between the rounded corners*
20,1,$1+$1,$2,$3,$4,$5,0*
20,1,$1+$1,$4,$5,$6,$7,0*
20,1,$1+$1,$6,$7,$8,$9,0*
20,1,$1+$1,$8,$9,$2,$3,0*%
%AMFreePoly0*
4,1,9,3.862500,-0.866500,0.737500,-0.866500,0.737500,-0.450000,-0.737500,-0.450000,-0.737500,0.450000,0.737500,0.450000,0.737500,0.866500,3.862500,0.866500,3.862500,-0.866500,3.862500,-0.866500,$1*%
G04 Aperture macros list end*
%ADD10RoundRect,0.219375X0.219375X0.410625X-0.219375X0.410625X-0.219375X-0.410625X0.219375X-0.410625X0*%
%ADD11RoundRect,0.219375X-0.219375X-0.410625X0.219375X-0.410625X0.219375X0.410625X-0.219375X0.410625X0*%
%ADD12RoundRect,0.219375X0.410625X-0.219375X0.410625X0.219375X-0.410625X0.219375X-0.410625X-0.219375X0*%
%ADD13RoundRect,0.150000X0.150000X-0.825000X0.150000X0.825000X-0.150000X0.825000X-0.150000X-0.825000X0*%
%ADD14R,1.800000X2.600000*%
%ADD15RoundRect,0.219375X-0.410625X0.219375X-0.410625X-0.219375X0.410625X-0.219375X0.410625X0.219375X0*%
%ADD16R,1.000000X1.000000*%
%ADD17R,1.300000X0.600000*%
%ADD18R,2.600000X1.800000*%
%ADD19R,0.900000X1.200000*%
%ADD20R,1.300000X0.900000*%
%ADD21FreePoly0,180.000000*%
G04 APERTURE END LIST*
D10*
%TO.C,R26*%
X177600000Y-46600000D03*
X175600000Y-46600000D03*
%TD*%
D11*
%TO.C,R68*%
X183300000Y-111100000D03*
X185300000Y-111100000D03*
%TD*%
D12*
%TO.C,R78*%
X160750000Y-108350000D03*
X160750000Y-106350000D03*
%TD*%
D10*
%TO.C,R58*%
X197100000Y-96450000D03*
X195100000Y-96450000D03*
%TD*%
D13*
%TO.C,IC3*%
X175495000Y-126175000D03*
X176765000Y-126175000D03*
X178035000Y-126175000D03*
X179305000Y-126175000D03*
X180575000Y-126175000D03*
X181845000Y-126175000D03*
X183115000Y-126175000D03*
X184385000Y-126175000D03*
X184385000Y-121225000D03*
X183115000Y-121225000D03*
X181845000Y-121225000D03*
X180575000Y-121225000D03*
X179305000Y-121225000D03*
X178035000Y-121225000D03*
X176765000Y-121225000D03*
X175495000Y-121225000D03*
%TD*%
D11*
%TO.C,R72*%
X174300000Y-99600000D03*
X176300000Y-99600000D03*
%TD*%
D14*
%TO.C,C1*%
X177775000Y-136250000D03*
X177775000Y-131750000D03*
%TD*%
D11*
%TO.C,C31*%
X174300000Y-96400000D03*
X176300000Y-96400000D03*
%TD*%
D10*
%TO.C,R75*%
X161700000Y-115600000D03*
X159700000Y-115600000D03*
%TD*%
D15*
%TO.C,R22*%
X167794949Y-47493349D03*
X167794949Y-49493349D03*
%TD*%
D10*
%TO.C,R7*%
X200400000Y-61400000D03*
X198400000Y-61400000D03*
%TD*%
D11*
%TO.C,R21*%
X156800000Y-123800000D03*
X158800000Y-123800000D03*
%TD*%
D10*
%TO.C,R102*%
X168800000Y-65500000D03*
X166800000Y-65500000D03*
%TD*%
%TO.C,R63*%
X187800000Y-99700000D03*
X185800000Y-99700000D03*
%TD*%
D15*
%TO.C,R90*%
X157600000Y-134700000D03*
X157600000Y-136700000D03*
%TD*%
D11*
%TO.C,C30*%
X170400000Y-114300000D03*
X172400000Y-114300000D03*
%TD*%
D10*
%TO.C,R106*%
X172800000Y-99600000D03*
X170800000Y-99600000D03*
%TD*%
D11*
%TO.C,R103*%
X197600000Y-73400000D03*
X199600000Y-73400000D03*
%TD*%
D12*
%TO.C,R10*%
X159100000Y-81600000D03*
X159100000Y-79600000D03*
%TD*%
%TO.C,C15*%
X177794949Y-67493349D03*
X177794949Y-65493349D03*
%TD*%
D15*
%TO.C,R19*%
X171500000Y-65500000D03*
X171500000Y-67500000D03*
%TD*%
D10*
%TO.C,R61*%
X200800000Y-99700000D03*
X198800000Y-99700000D03*
%TD*%
D11*
%TO.C,R16*%
X193100000Y-88800000D03*
X195100000Y-88800000D03*
%TD*%
D10*
%TO.C,R15*%
X169300000Y-85200000D03*
X167300000Y-85200000D03*
%TD*%
D13*
%TO.C,U1*%
X191970000Y-57450000D03*
X193240000Y-57450000D03*
X194510000Y-57450000D03*
X195780000Y-57450000D03*
X197050000Y-57450000D03*
X198320000Y-57450000D03*
X199590000Y-57450000D03*
X199590000Y-52500000D03*
X198320000Y-52500000D03*
X197050000Y-52500000D03*
X195780000Y-52500000D03*
X194510000Y-52500000D03*
X193240000Y-52500000D03*
X191970000Y-52500000D03*
%TD*%
D10*
%TO.C,R48*%
X156500000Y-84300000D03*
X154500000Y-84300000D03*
%TD*%
%TO.C,R69*%
X169300000Y-99600000D03*
X167300000Y-99600000D03*
%TD*%
D11*
%TO.C,C28*%
X163800000Y-99600000D03*
X165800000Y-99600000D03*
%TD*%
D16*
%TO.C,D7*%
X204000000Y-117050000D03*
X204000000Y-114550000D03*
%TD*%
D15*
%TO.C,R36*%
X194300000Y-114400000D03*
X194300000Y-116400000D03*
%TD*%
D17*
%TO.C,Q3*%
X158244949Y-64443349D03*
X158244949Y-66343349D03*
X160344949Y-65393349D03*
%TD*%
D12*
%TO.C,C32*%
X167400000Y-113200000D03*
X167400000Y-111200000D03*
%TD*%
D10*
%TO.C,R32*%
X199700000Y-48300000D03*
X197700000Y-48300000D03*
%TD*%
%TO.C,R49*%
X160294949Y-59993349D03*
X158294949Y-59993349D03*
%TD*%
%TO.C,R52*%
X180700000Y-114100000D03*
X178700000Y-114100000D03*
%TD*%
D12*
%TO.C,R38*%
X188800000Y-72200000D03*
X188800000Y-70200000D03*
%TD*%
D13*
%TO.C,U9*%
X179940000Y-108225000D03*
X181210000Y-108225000D03*
X182480000Y-108225000D03*
X183750000Y-108225000D03*
X185020000Y-108225000D03*
X186290000Y-108225000D03*
X187560000Y-108225000D03*
X187560000Y-103275000D03*
X186290000Y-103275000D03*
X185020000Y-103275000D03*
X183750000Y-103275000D03*
X182480000Y-103275000D03*
X181210000Y-103275000D03*
X179940000Y-103275000D03*
%TD*%
D12*
%TO.C,C11*%
X173800000Y-51200000D03*
X173800000Y-49200000D03*
%TD*%
D18*
%TO.C,C4*%
X198300000Y-132925000D03*
X202800000Y-132925000D03*
%TD*%
D15*
%TO.C,R18*%
X183700000Y-70100000D03*
X183700000Y-72100000D03*
%TD*%
D12*
%TO.C,R88*%
X165600000Y-134300000D03*
X165600000Y-132300000D03*
%TD*%
D13*
%TO.C,U10*%
X167355000Y-108225000D03*
X168625000Y-108225000D03*
X169895000Y-108225000D03*
X171165000Y-108225000D03*
X172435000Y-108225000D03*
X173705000Y-108225000D03*
X174975000Y-108225000D03*
X176245000Y-108225000D03*
X176245000Y-103275000D03*
X174975000Y-103275000D03*
X173705000Y-103275000D03*
X172435000Y-103275000D03*
X171165000Y-103275000D03*
X169895000Y-103275000D03*
X168625000Y-103275000D03*
X167355000Y-103275000D03*
%TD*%
D11*
%TO.C,R13*%
X166794949Y-61493349D03*
X168794949Y-61493349D03*
%TD*%
%TO.C,R51*%
X190800000Y-111100000D03*
X192800000Y-111100000D03*
%TD*%
D17*
%TO.C,Q4*%
X157844949Y-55043349D03*
X157844949Y-56943349D03*
X159944949Y-55993349D03*
%TD*%
D13*
%TO.C,IC2*%
X189374949Y-81943349D03*
X190644949Y-81943349D03*
X191914949Y-81943349D03*
X193184949Y-81943349D03*
X194454949Y-81943349D03*
X195724949Y-81943349D03*
X196994949Y-81943349D03*
X198264949Y-81943349D03*
X198264949Y-76993349D03*
X196994949Y-76993349D03*
X195724949Y-76993349D03*
X194454949Y-76993349D03*
X193184949Y-76993349D03*
X191914949Y-76993349D03*
X190644949Y-76993349D03*
X189374949Y-76993349D03*
%TD*%
D16*
%TO.C,D8*%
X201900000Y-114550000D03*
X201900000Y-117050000D03*
%TD*%
D12*
%TO.C,R27*%
X174600000Y-67600000D03*
X174600000Y-65600000D03*
%TD*%
D15*
%TO.C,R70*%
X163250000Y-102700000D03*
X163250000Y-104700000D03*
%TD*%
%TO.C,R50*%
X187700000Y-119800000D03*
X187700000Y-121800000D03*
%TD*%
D10*
%TO.C,R28*%
X177600000Y-48800000D03*
X175600000Y-48800000D03*
%TD*%
D18*
%TO.C,C3*%
X190150000Y-132925000D03*
X194650000Y-132925000D03*
%TD*%
D10*
%TO.C,R23*%
X177294949Y-73200000D03*
X175294949Y-73200000D03*
%TD*%
D13*
%TO.C,U6*%
X176349949Y-57468349D03*
X177619949Y-57468349D03*
X178889949Y-57468349D03*
X180159949Y-57468349D03*
X181429949Y-57468349D03*
X182699949Y-57468349D03*
X183969949Y-57468349D03*
X185239949Y-57468349D03*
X185239949Y-52518349D03*
X183969949Y-52518349D03*
X182699949Y-52518349D03*
X181429949Y-52518349D03*
X180159949Y-52518349D03*
X178889949Y-52518349D03*
X177619949Y-52518349D03*
X176349949Y-52518349D03*
%TD*%
D11*
%TO.C,R67*%
X185700000Y-96450000D03*
X187700000Y-96450000D03*
%TD*%
D13*
%TO.C,U8*%
X191210000Y-108225000D03*
X192480000Y-108225000D03*
X193750000Y-108225000D03*
X195020000Y-108225000D03*
X196290000Y-108225000D03*
X197560000Y-108225000D03*
X198830000Y-108225000D03*
X198830000Y-103275000D03*
X197560000Y-103275000D03*
X196290000Y-103275000D03*
X195020000Y-103275000D03*
X193750000Y-103275000D03*
X192480000Y-103275000D03*
X191210000Y-103275000D03*
%TD*%
D19*
%TO.C,D1*%
X192350000Y-137050000D03*
X189050000Y-137050000D03*
%TD*%
D15*
%TO.C,R12*%
X159100000Y-74700000D03*
X159100000Y-76700000D03*
%TD*%
D13*
%TO.C,IC4*%
X189495000Y-126175000D03*
X190765000Y-126175000D03*
X192035000Y-126175000D03*
X193305000Y-126175000D03*
X194575000Y-126175000D03*
X195845000Y-126175000D03*
X197115000Y-126175000D03*
X198385000Y-126175000D03*
X198385000Y-121225000D03*
X197115000Y-121225000D03*
X195845000Y-121225000D03*
X194575000Y-121225000D03*
X193305000Y-121225000D03*
X192035000Y-121225000D03*
X190765000Y-121225000D03*
X189495000Y-121225000D03*
%TD*%
D10*
%TO.C,R71*%
X172400000Y-111500000D03*
X170400000Y-111500000D03*
%TD*%
D15*
%TO.C,R35*%
X181900000Y-128600000D03*
X181900000Y-130600000D03*
%TD*%
D10*
%TO.C,R56*%
X201300000Y-111200000D03*
X199300000Y-111200000D03*
%TD*%
D11*
%TO.C,R54*%
X178700000Y-111100000D03*
X180700000Y-111100000D03*
%TD*%
D13*
%TO.C,U11*%
X164810051Y-126156651D03*
X166080051Y-126156651D03*
X167350051Y-126156651D03*
X168620051Y-126156651D03*
X169890051Y-126156651D03*
X171160051Y-126156651D03*
X172430051Y-126156651D03*
X172430051Y-121206651D03*
X171160051Y-121206651D03*
X169890051Y-121206651D03*
X168620051Y-121206651D03*
X167350051Y-121206651D03*
X166080051Y-121206651D03*
X164810051Y-121206651D03*
%TD*%
D10*
%TO.C,R37*%
X194600000Y-64600000D03*
X192600000Y-64600000D03*
%TD*%
D11*
%TO.C,R25*%
X178794949Y-70093349D03*
X180794949Y-70093349D03*
%TD*%
D12*
%TO.C,R44*%
X162794949Y-66993349D03*
X162794949Y-64993349D03*
%TD*%
D19*
%TO.C,D2*%
X200050000Y-137050000D03*
X203350000Y-137050000D03*
%TD*%
D11*
%TO.C,R55*%
X191100000Y-96450000D03*
X193100000Y-96450000D03*
%TD*%
D10*
%TO.C,R62*%
X202800000Y-126300000D03*
X200800000Y-126300000D03*
%TD*%
D15*
%TO.C,R30*%
X185794949Y-60800000D03*
X185794949Y-62800000D03*
%TD*%
D11*
%TO.C,R40*%
X174900000Y-116800000D03*
X176900000Y-116800000D03*
%TD*%
D13*
%TO.C,U4*%
X162984949Y-81968349D03*
X164254949Y-81968349D03*
X165524949Y-81968349D03*
X166794949Y-81968349D03*
X168064949Y-81968349D03*
X169334949Y-81968349D03*
X170604949Y-81968349D03*
X170604949Y-77018349D03*
X169334949Y-77018349D03*
X168064949Y-77018349D03*
X166794949Y-77018349D03*
X165524949Y-77018349D03*
X164254949Y-77018349D03*
X162984949Y-77018349D03*
%TD*%
D11*
%TO.C,R43*%
X170400000Y-117400000D03*
X172400000Y-117400000D03*
%TD*%
D15*
%TO.C,R24*%
X174600000Y-60800000D03*
X174600000Y-62800000D03*
%TD*%
D11*
%TO.C,R8*%
X192250000Y-48200000D03*
X194250000Y-48200000D03*
%TD*%
D12*
%TO.C,R29*%
X182294949Y-67493349D03*
X182294949Y-65493349D03*
%TD*%
D11*
%TO.C,R5*%
X198400000Y-64600000D03*
X200400000Y-64600000D03*
%TD*%
D16*
%TO.C,D9*%
X185350000Y-91100000D03*
X187850000Y-91100000D03*
%TD*%
D10*
%TO.C,R59*%
X204400000Y-120800000D03*
X202400000Y-120800000D03*
%TD*%
D12*
%TO.C,C13*%
X185794949Y-67493349D03*
X185794949Y-65493349D03*
%TD*%
D13*
%TO.C,U5*%
X163484949Y-57468349D03*
X164754949Y-57468349D03*
X166024949Y-57468349D03*
X167294949Y-57468349D03*
X168564949Y-57468349D03*
X169834949Y-57468349D03*
X171104949Y-57468349D03*
X171104949Y-52518349D03*
X169834949Y-52518349D03*
X168564949Y-52518349D03*
X167294949Y-52518349D03*
X166024949Y-52518349D03*
X164754949Y-52518349D03*
X163484949Y-52518349D03*
%TD*%
D17*
%TO.C,Q2*%
X159900000Y-134425000D03*
X159900000Y-136325000D03*
X162000000Y-135375000D03*
%TD*%
D12*
%TO.C,C14*%
X188000000Y-51800000D03*
X188000000Y-49800000D03*
%TD*%
D10*
%TO.C,R105*%
X181500000Y-97700000D03*
X179500000Y-97700000D03*
%TD*%
D11*
%TO.C,R65*%
X183300000Y-114100000D03*
X185300000Y-114100000D03*
%TD*%
D13*
%TO.C,IC1*%
X173854949Y-82093349D03*
X175124949Y-82093349D03*
X176394949Y-82093349D03*
X177664949Y-82093349D03*
X178934949Y-82093349D03*
X180204949Y-82093349D03*
X181474949Y-82093349D03*
X182744949Y-82093349D03*
X182744949Y-77143349D03*
X181474949Y-77143349D03*
X180204949Y-77143349D03*
X178934949Y-77143349D03*
X177664949Y-77143349D03*
X176394949Y-77143349D03*
X175124949Y-77143349D03*
X173854949Y-77143349D03*
%TD*%
D11*
%TO.C,R87*%
X156800000Y-120200000D03*
X158800000Y-120200000D03*
%TD*%
D12*
%TO.C,R41*%
X162800000Y-62500000D03*
X162800000Y-60500000D03*
%TD*%
D15*
%TO.C,R66*%
X198900000Y-114400000D03*
X198900000Y-116400000D03*
%TD*%
D12*
%TO.C,R82*%
X159940000Y-127720300D03*
X159940000Y-125720300D03*
%TD*%
D11*
%TO.C,R11*%
X175194949Y-70093349D03*
X177194949Y-70093349D03*
%TD*%
D10*
%TO.C,R17*%
X198800000Y-85500000D03*
X196800000Y-85500000D03*
%TD*%
D11*
%TO.C,R60*%
X188000000Y-114100000D03*
X190000000Y-114100000D03*
%TD*%
D17*
%TO.C,Q1*%
X162000000Y-131900000D03*
X162000000Y-130000000D03*
X159900000Y-130950000D03*
%TD*%
D15*
%TO.C,R33*%
X177794949Y-60800000D03*
X177794949Y-62800000D03*
%TD*%
%TO.C,R6*%
X202900000Y-50800000D03*
X202900000Y-52800000D03*
%TD*%
D10*
%TO.C,R53*%
X190000000Y-116800000D03*
X188000000Y-116800000D03*
%TD*%
%TO.C,R109*%
X181800000Y-48800000D03*
X179800000Y-48800000D03*
%TD*%
%TO.C,R20*%
X173294949Y-73200000D03*
X171294949Y-73200000D03*
%TD*%
D11*
%TO.C,R64*%
X194800000Y-111100000D03*
X196800000Y-111100000D03*
%TD*%
D12*
%TO.C,R73*%
X186194949Y-83693349D03*
X186194949Y-81693349D03*
%TD*%
D11*
%TO.C,R47*%
X158300000Y-51400000D03*
X160300000Y-51400000D03*
%TD*%
%TO.C,R39*%
X190600000Y-71000000D03*
X192600000Y-71000000D03*
%TD*%
%TO.C,R14*%
X193100000Y-85500000D03*
X195100000Y-85500000D03*
%TD*%
D10*
%TO.C,R9*%
X194600000Y-61400000D03*
X192600000Y-61400000D03*
%TD*%
D15*
%TO.C,R74*%
X165350000Y-111200000D03*
X165350000Y-113200000D03*
%TD*%
%TO.C,R34*%
X182294949Y-60800000D03*
X182294949Y-62800000D03*
%TD*%
D11*
%TO.C,R31*%
X184000000Y-48800000D03*
X186000000Y-48800000D03*
%TD*%
D14*
%TO.C,C2*%
X171600000Y-136200000D03*
X171600000Y-131700000D03*
%TD*%
D10*
%TO.C,R95*%
X185325000Y-116800000D03*
X183325000Y-116800000D03*
%TD*%
D11*
%TO.C,R57*%
X191000000Y-99700000D03*
X193000000Y-99700000D03*
%TD*%
D20*
%TO.C,U2*%
X185944949Y-135993349D03*
D21*
X185857449Y-134493349D03*
D20*
X185944949Y-132993349D03*
%TD*%
D15*
%TO.C,R85*%
X157600000Y-129900000D03*
X157600000Y-131900000D03*
%TD*%
D10*
%TO.C,R46*%
X186000000Y-46600000D03*
X184000000Y-46600000D03*
%TD*%
D11*
%TO.C,R108*%
X163294949Y-47393349D03*
X165294949Y-47393349D03*
%TD*%
D16*
%TO.C,D10*%
X187850000Y-88800000D03*
X185350000Y-88800000D03*
%TD*%
M02*
